<svg width="17" height="16" viewBox="0 0 17 16" fill="none" xmlns="http://www.w3.org/2000/svg">
<path d="M14.2144 7.14509H13.0001V3.14509C13.0001 1.88259 11.9769 0.859375 10.7144 0.859375H6.28578C5.02328 0.859375 4.00007 1.88259 4.00007 3.14509V7.14509H2.78578C2.46971 7.14509 2.21436 7.40045 2.21436 7.71652V14.5737C2.21436 14.8897 2.46971 15.1451 2.78578 15.1451H14.2144C14.5304 15.1451 14.7858 14.8897 14.7858 14.5737V7.71652C14.7858 7.40045 14.5304 7.14509 14.2144 7.14509ZM5.28578 3.14509C5.28578 2.5933 5.734 2.14509 6.28578 2.14509H10.7144C11.2661 2.14509 11.7144 2.5933 11.7144 3.14509V7.14509H5.28578V3.14509ZM13.5001 13.8594H3.50007V8.4308H13.5001V13.8594ZM8.00007 11.3772V12.3237C8.00007 12.4022 8.06436 12.4665 8.14293 12.4665H8.85721C8.93578 12.4665 9.00007 12.4022 9.00007 12.3237V11.3772C9.14748 11.2714 9.2575 11.1215 9.3143 10.9492C9.37111 10.7768 9.37176 10.5909 9.31618 10.4182C9.26059 10.2455 9.15162 10.0948 9.00497 9.98794C8.85831 9.88107 8.68153 9.82349 8.50007 9.82349C8.31861 9.82349 8.14183 9.88107 7.99517 9.98794C7.84852 10.0948 7.73955 10.2455 7.68397 10.4182C7.62838 10.5909 7.62903 10.7768 7.68584 10.9492C7.74264 11.1215 7.85267 11.2714 8.00007 11.3772Z" fill="black"/>
</svg>
