<svg width="134" height="40" viewBox="0 0 134 40" fill="none" xmlns="http://www.w3.org/2000/svg">
<path d="M17.3318 7.61869C17.9279 7.61869 18.4112 7.13544 18.4112 6.53932C18.4112 5.94321 17.9279 5.45996 17.3318 5.45996C16.7357 5.45996 16.2524 5.94321 16.2524 6.53932C16.2524 7.13544 16.7357 7.61869 17.3318 7.61869Z" fill="#0067B2"/>
<path d="M28.9925 14.2202C29.2069 14.2254 29.418 14.1627 29.5986 14.0403C29.7793 13.9179 29.9214 13.7413 30.0069 13.5329C30.0923 13.3246 30.1172 13.0941 30.0784 12.8707C30.0395 12.6473 29.9387 12.4413 29.7888 12.2788C29.6389 12.1164 29.4466 12.005 29.2366 11.9587C29.0266 11.9125 28.8083 11.9336 28.6097 12.0193C28.411 12.105 28.241 12.2514 28.1213 12.4398C28.0016 12.6283 27.9376 12.8503 27.9376 13.0774C27.936 13.2258 27.962 13.373 28.0141 13.5108C28.0663 13.6485 28.1435 13.774 28.2415 13.8802C28.3394 13.9863 28.4562 14.071 28.585 14.1293C28.7139 14.1876 28.8523 14.2185 28.9925 14.2202Z" fill="#0067B2"/>
<path d="M5.7139 14.2205C6.34508 14.2205 6.85676 13.7089 6.85676 13.0777C6.85676 12.4465 6.34508 11.9348 5.7139 11.9348C5.08272 11.9348 4.57104 12.4465 4.57104 13.0777C4.57104 13.7089 5.08272 14.2205 5.7139 14.2205Z" fill="#0067B2"/>
<path d="M17.3318 34.5403C17.9279 34.5403 18.4112 34.0571 18.4112 33.461C18.4112 32.8648 17.9279 32.3816 17.3318 32.3816C16.7357 32.3816 16.2524 32.8648 16.2524 33.461C16.2524 34.0571 16.7357 34.5403 17.3318 34.5403Z" fill="#0067B2"/>
<path d="M29.0169 27.9381C29.613 27.9381 30.0962 27.4264 30.0962 26.7952C30.0962 26.164 29.613 25.6523 29.0169 25.6523C28.4207 25.6523 27.9375 26.164 27.9375 26.7952C27.9375 27.4264 28.4207 27.9381 29.0169 27.9381Z" fill="#0067B2"/>
<path d="M5.52346 27.9381C6.11957 27.9381 6.60282 27.4264 6.60282 26.7952C6.60282 26.164 6.11957 25.6523 5.52346 25.6523C4.92734 25.6523 4.44409 26.164 4.44409 26.7952C4.44409 27.4264 4.92734 27.9381 5.52346 27.9381Z" fill="#0067B2"/>
<path d="M17.3321 9.14228C17.177 9.1413 16.8834 9.14229 16.8834 9.14229L15.2368 12.0629H19.1733L17.544 9.14229C17.4786 9.14229 17.3993 9.14228 17.3321 9.14228Z" fill="#0067B2"/>
<path d="M34.6667 10L17.3329 0L0 10V30L17.3338 40L34.6667 30V10ZM28.7111 24.0764C28.8407 24.0566 28.9715 24.0462 29.1025 24.0453C29.7135 24.0455 30.3069 24.2501 30.7881 24.6264C31.2693 25.0027 31.6106 25.5292 31.7576 26.1218C31.9046 26.7145 31.8488 27.3392 31.5992 27.8965C31.3496 28.4538 30.9204 28.9116 30.3802 29.1969C29.84 29.4822 29.2197 29.5786 28.6183 29.4708C28.0169 29.3629 27.4689 29.057 27.0617 28.6018C26.6544 28.1466 26.4114 27.5683 26.3713 26.959C26.3312 26.3497 26.4963 25.7446 26.8404 25.24L20.4543 14.1867H18.4973V30.9964C19.0724 31.249 19.5431 31.6916 19.8304 32.2499C20.1176 32.8082 20.2039 33.4483 20.0747 34.0626C19.9456 34.677 19.6089 35.2283 19.1211 35.6239C18.6334 36.0196 18.0243 36.2355 17.396 36.2355C16.7678 36.2355 16.1587 36.0196 15.6709 35.6239C15.1832 35.2283 14.8465 34.677 14.7173 34.0626C14.5882 33.4483 14.6745 32.8082 14.9617 32.2499C15.2489 31.6916 15.7196 31.249 16.2948 30.9964V14.1867H14.0567L7.74086 25.12C8.11476 25.6106 8.31164 26.2132 8.29951 26.8297C8.28737 27.4463 8.06694 28.0407 7.67403 28.5162C7.28111 28.9918 6.73881 29.3206 6.13524 29.4492C5.53167 29.5778 4.9023 29.4987 4.34941 29.2248C3.79651 28.9508 3.35258 28.498 3.08976 27.9401C2.82693 27.3821 2.76065 26.7517 2.9017 26.1513C3.04274 25.551 3.3828 25.0159 3.86664 24.6331C4.35048 24.2503 4.94966 24.0422 5.5668 24.0427C5.65042 24.0427 5.73137 24.048 5.81321 24.0551L11.5161 14.1884H8.25947C8.00671 14.7632 7.56379 15.2335 7.00506 15.5205C6.44634 15.8075 5.80581 15.8937 5.19099 15.7647C4.57618 15.6357 4.0245 15.2992 3.62855 14.8118C3.23261 14.3244 3.0165 13.7158 3.0165 13.088C3.0165 12.4602 3.23261 11.8516 3.62855 11.3642C4.0245 10.8768 4.57618 10.5403 5.19099 10.4113C5.80581 10.2823 6.44634 10.3685 7.00506 10.6555C7.56379 10.9425 8.00671 11.4128 8.25947 11.9876H12.7855L15.0983 7.98756C14.8245 7.56528 14.6725 7.0757 14.6592 6.57269C14.6458 6.06968 14.7716 5.57274 15.0226 5.13655C15.2737 4.70036 15.6403 4.34182 16.0821 4.1004C16.5239 3.85897 17.0238 3.74402 17.5268 3.76818C18.0298 3.79235 18.5163 3.95469 18.9329 4.23736C19.3495 4.52002 19.68 4.91204 19.888 5.37029C20.0961 5.82854 20.1735 6.33524 20.1119 6.83465C20.0504 7.33406 19.8521 7.80681 19.539 8.20089L21.7255 11.9876H26.5975C26.8503 11.4128 27.2932 10.9425 27.8519 10.6555C28.4107 10.3685 29.0512 10.2823 29.666 10.4113C30.2808 10.5403 30.8325 10.8768 31.2285 11.3642C31.6244 11.8516 31.8405 12.4602 31.8405 13.088C31.8405 13.7158 31.6244 14.3244 31.2285 14.8118C30.8325 15.2992 30.2808 15.6357 29.666 15.7647C29.0512 15.8937 28.4107 15.8075 27.8519 15.5205C27.2932 15.2335 26.8503 14.7632 26.5975 14.1884H22.9975L28.7111 24.0764Z" fill="#0067B2"/>
<path d="M59.8387 29.6883H56.489L54.8334 24.9481H47.595L46.0036 29.6883H42.6667L49.5586 11.0649H52.9981L59.8387 29.6883ZM54.0249 22.4286L51.4709 15C51.3939 14.7576 51.3126 14.368 51.227 13.8312H51.1757C51.0987 14.3247 51.0131 14.7143 50.919 15L48.3907 22.4286H54.0249Z" fill="#565656"/>
<path d="M68.5402 29.5455C67.9584 29.8398 67.1926 29.987 66.2429 29.987C63.6932 29.987 62.4183 28.7489 62.4183 26.2727V18.7532H60.2237V16.3896H62.4183V13.3117L65.3958 12.4545V16.3896H68.5402V18.7532H65.3958V25.4026C65.3958 26.1905 65.537 26.7532 65.8193 27.0909C66.1017 27.4286 66.5723 27.5974 67.2311 27.5974C67.7359 27.5974 68.1723 27.4502 68.5402 27.1558V29.5455Z" fill="#565656"/>
<path d="M82.7859 29.6883H79.8084V22.4156C79.8084 19.7835 78.94 18.4675 77.2031 18.4675C76.3304 18.4675 75.5946 18.8485 74.9957 19.6104C74.3968 20.3723 74.0973 21.3463 74.0973 22.5325V29.6883H71.107V10H74.0973V18.5974H74.1486C75.1411 16.9177 76.5614 16.0779 78.4095 16.0779C81.3271 16.0779 82.7859 17.8831 82.7859 21.4935V29.6883Z" fill="#565656"/>
<path d="M96.4927 29.6883H93.605V27.6104H93.5537C92.6468 29.2035 91.3163 30 89.5623 30C88.2704 30 87.2565 29.645 86.5207 28.9351C85.7934 28.2251 85.4298 27.2857 85.4298 26.1169C85.4298 23.6061 86.8586 22.1429 89.7163 21.7273L93.6179 21.1688C93.6179 19.2727 92.728 18.3247 90.9484 18.3247C89.3826 18.3247 87.9709 18.8701 86.7132 19.961V17.3247C88.0992 16.4935 89.6992 16.0779 91.5131 16.0779C94.8328 16.0779 96.4927 17.7316 96.4927 21.039V29.6883ZM93.6179 23.1558L90.8586 23.5455C90.003 23.658 89.357 23.8701 88.9206 24.1818C88.4928 24.4848 88.2789 25.0216 88.2789 25.7922C88.2789 26.355 88.4757 26.8182 88.8693 27.1818C89.2714 27.5368 89.8062 27.7143 90.4735 27.7143C91.3805 27.7143 92.1291 27.3939 92.7195 26.7532C93.3184 26.1039 93.6179 25.29 93.6179 24.3117V23.1558Z" fill="#565656"/>
<path d="M107.761 19.2597C107.402 18.974 106.884 18.8312 106.208 18.8312C105.327 18.8312 104.591 19.2338 104.001 20.039C103.41 20.8442 103.115 21.9394 103.115 23.3247V29.6883H100.138V16.3896H103.115V19.1299H103.166C103.457 18.1948 103.902 17.4675 104.501 16.9481C105.109 16.4199 105.785 16.1558 106.529 16.1558C107.068 16.1558 107.479 16.2381 107.761 16.4026V19.2597Z" fill="#565656"/>
<path d="M122.238 16.3896L117.155 29.6883H113.934L109.096 16.3896H112.33L115.243 25.6883C115.466 26.3723 115.603 26.9697 115.654 27.4805H115.692C115.769 26.8398 115.889 26.2597 116.052 25.7403L119.106 16.3896H122.238Z" fill="#565656"/>
<path d="M133.917 29.6883H131.029V27.6104H130.978C130.071 29.2035 128.74 30 126.986 30C125.694 30 124.681 29.645 123.945 28.9351C123.217 28.2251 122.854 27.2857 122.854 26.1169C122.854 23.6061 124.283 22.1429 127.14 21.7273L131.042 21.1688C131.042 19.2727 130.152 18.3247 128.372 18.3247C126.807 18.3247 125.395 18.8701 124.137 19.961V17.3247C125.523 16.4935 127.123 16.0779 128.937 16.0779C132.257 16.0779 133.917 17.7316 133.917 21.039V29.6883ZM131.042 23.1558L128.283 23.5455C127.427 23.658 126.781 23.8701 126.345 24.1818C125.917 24.4848 125.703 25.0216 125.703 25.7922C125.703 26.355 125.9 26.8182 126.293 27.1818C126.695 27.5368 127.23 27.7143 127.898 27.7143C128.805 27.7143 129.553 27.3939 130.144 26.7532C130.742 26.1039 131.042 25.29 131.042 24.3117V23.1558Z" fill="#565656"/>
</svg>
